<svg width="256" height="256" xmlns="http://www.w3.org/2000/svg">

 <g>
  <title>background</title>
  <rect fill="none" id="canvas_background" height="402" width="582" y="-1" x="-1"/>
 </g>
 <g>
  <title>Layer 1</title>
  <path id="svg_1" d="m154.7,142.75a36,36 0 1 0 -37.4,0a63.61,63.61 0 0 0 -32.5,22.85a4,4 0 0 0 6.4,4.8a56,56 0 0 1 89.6,0a4,4 0 0 0 6.4,-4.8a63.65,63.65 0 0 0 -32.5,-22.85zm-46.7,-30.75a28,28 0 1 1 28,28a28,28 0 0 1 -28,-28zm100,-84l-144,0a12,12 0 0 0 -12,12l0,28l-20,0a4,4 0 0 0 0,8l20,0l0,48l-20,0a4,4 0 0 0 0,8l20,0l0,48l-20,0a4,4 0 0 0 0,8l20,0l0,28a12,12 0 0 0 12,12l144,0a12,12 0 0 0 12,-12l0,-176a12,12 0 0 0 -12,-12zm4,188a4,4 0 0 1 -4,4l-144,0a4,4 0 0 1 -4,-4l0,-176a4,4 0 0 1 4,-4l144,0a4,4 0 0 1 4,4l0,176z"/>
  <text xml:space="preserve" text-anchor="start" font-family="Helvetica, Arial, sans-serif" font-size="69" id="svg_2" y="81.445313" x="163" stroke-width="0" stroke="#000" fill="#000000">+</text>
 </g>
</svg>